<svg width="2395" height="319" viewBox="0 0 2395 319" fill="none" xmlns="http://www.w3.org/2000/svg">
<path d="M156.887 318.921C242.56 318.921 286.472 262.093 298.096 215.167L242.56 198.377C234.38 226.791 208.979 260.801 156.887 260.801C107.808 260.801 62.1732 225.069 62.1732 160.061C62.1732 90.7474 110.391 58.0282 156.026 58.0282C208.979 58.0282 232.658 90.3169 239.976 119.592L295.944 101.941C283.889 52.4315 240.407 0.769531 156.026 0.769531C74.2277 0.769531 0.609375 62.7639 0.609375 160.061C0.609375 257.357 71.6446 318.921 156.887 318.921Z" fill="black"/>
<path d="M315.747 254.774C315.747 287.924 343.3 318.491 388.505 318.491C419.932 318.491 440.166 303.853 450.929 287.063C450.929 295.243 451.79 306.867 453.082 312.463H505.605C504.313 305.145 503.022 290.077 503.022 278.883V174.698C503.022 132.077 478.052 94.1916 410.891 94.1916C354.063 94.1916 323.497 130.785 320.052 163.935L370.853 174.698C372.575 156.186 386.352 140.257 411.322 140.257C435.431 140.257 447.055 152.742 447.055 167.81C447.055 175.129 443.18 181.156 431.126 182.878L379.033 190.627C343.731 195.793 315.747 216.889 315.747 254.774ZM400.559 275.869C382.047 275.869 373.006 263.815 373.006 251.33C373.006 234.97 384.63 226.791 399.267 224.638L447.055 217.319V226.791C447.055 264.246 424.668 275.869 400.559 275.869Z" fill="black"/>
<path d="M609.386 312.463V188.475C609.386 165.227 624.024 146.715 648.994 146.715C674.825 146.715 686.449 163.935 686.449 186.753V312.463H743.277V188.475C743.277 165.657 757.914 146.715 782.454 146.715C808.715 146.715 819.909 163.935 819.909 186.753V312.463H875.445V175.129C875.445 118.3 837.99 94.6221 798.813 94.6221C770.83 94.6221 748.443 104.093 731.653 129.924C720.89 107.107 697.642 94.6221 668.798 94.6221C645.55 94.6221 618.427 105.816 606.803 126.48V100.649H552.128V312.463H609.386Z" fill="black"/>
<path d="M1061.79 312.463H1116.46C1115.6 305.145 1114.31 290.507 1114.31 274.147V100.649H1057.05V223.777C1057.05 248.316 1042.42 265.537 1017.01 265.537C990.323 265.537 978.268 246.594 978.268 222.916V100.649H921.009V234.54C921.009 280.605 950.285 318.06 1001.52 318.06C1023.9 318.06 1048.44 309.45 1060.07 289.646C1060.07 298.256 1060.93 308.158 1061.79 312.463Z" fill="black"/>
<path d="M1309.31 318.921C1394.98 318.921 1438.89 262.093 1450.52 215.167L1394.98 198.377C1386.8 226.791 1361.4 260.801 1309.31 260.801C1260.23 260.801 1214.59 225.069 1214.59 160.061C1214.59 90.7474 1262.81 58.0282 1308.45 58.0282C1361.4 58.0282 1385.08 90.3169 1392.4 119.592L1448.36 101.941C1436.31 52.4315 1392.83 0.769531 1308.45 0.769531C1226.65 0.769531 1153.03 62.7639 1153.03 160.061C1153.03 257.357 1224.07 318.921 1309.31 318.921Z" fill="black"/>
<path d="M1468.17 254.774C1468.17 287.924 1495.72 318.491 1540.93 318.491C1572.35 318.491 1592.59 303.853 1603.35 287.063C1603.35 295.243 1604.21 306.867 1605.5 312.463H1658.03C1656.73 305.145 1655.44 290.077 1655.44 278.883V174.698C1655.44 132.077 1630.47 94.1916 1563.31 94.1916C1506.48 94.1916 1475.92 130.785 1472.47 163.935L1523.27 174.698C1525 156.186 1538.77 140.257 1563.74 140.257C1587.85 140.257 1599.48 152.742 1599.48 167.81C1599.48 175.129 1595.6 181.156 1583.55 182.878L1531.45 190.627C1496.15 195.793 1468.17 216.889 1468.17 254.774ZM1552.98 275.869C1534.47 275.869 1525.43 263.815 1525.43 251.33C1525.43 234.97 1537.05 226.791 1551.69 224.638L1599.48 217.319V226.791C1599.48 264.246 1577.09 275.869 1552.98 275.869Z" fill="black"/>
<path d="M1761.81 312.463V188.475C1761.81 165.227 1776.45 146.715 1801.42 146.715C1827.25 146.715 1838.87 163.935 1838.87 186.753V312.463H1895.7V188.475C1895.7 165.657 1910.34 146.715 1934.88 146.715C1961.14 146.715 1972.33 163.935 1972.33 186.753V312.463H2027.87V175.129C2027.87 118.3 1990.41 94.6221 1951.23 94.6221C1923.25 94.6221 1900.86 104.093 1884.07 129.924C1873.31 107.107 1850.06 94.6221 1821.22 94.6221C1797.97 94.6221 1770.85 105.816 1759.22 126.48V100.649H1704.55V312.463H1761.81Z" fill="black"/>
<path d="M2214.21 312.463H2268.89C2268.02 305.145 2266.73 290.507 2266.73 274.147V100.649H2209.47V223.777C2209.47 248.316 2194.84 265.537 2169.44 265.537C2142.74 265.537 2130.69 246.594 2130.69 222.916V100.649H2073.43V234.54C2073.43 280.605 2102.71 318.06 2153.94 318.06C2176.32 318.06 2200.86 309.45 2212.49 289.646C2212.49 298.256 2213.35 308.158 2214.21 312.463Z" fill="black"/>
<path d="M2316.22 276.3C2316.22 297.826 2333.87 315.477 2355.39 315.477C2377.35 315.477 2395 297.826 2395 276.3C2395 254.774 2377.35 237.123 2355.39 237.123C2333.87 237.123 2316.22 254.774 2316.22 276.3Z" fill="black"/>
</svg>
